<?xml version="1.0" encoding="UTF-8"?>
<svg xmlns="http://www.w3.org/2000/svg" xmlns:xlink="http://www.w3.org/1999/xlink" width="1306px" height="512px" viewBox="0 0 1305 512" version="1.1">
<g id="surface1">
<path style=" stroke:none;fill-rule:nonzero;fill:rgb(0%,0%,0%);fill-opacity:1;" d="M 815.625 409.601562 L 703.675781 409.601562 L 703.675781 297.601562 L 726.066406 275.199219 L 703.675781 275.199219 L 703.675781 252.800781 L 815.625 252.800781 L 815.625 275.199219 L 729.265625 275.199219 L 729.265625 339.199219 L 748.457031 320 L 815.625 320 L 815.625 342.398438 L 729.265625 342.398438 L 729.265625 387.199219 L 815.625 387.199219 Z M 815.625 409.601562 "/>
<path style=" stroke:none;fill-rule:nonzero;fill:rgb(0%,0%,0%);fill-opacity:1;" d="M 885.4375 417.792969 C 885.4375 429.261719 881.136719 439.296875 872.539062 447.898438 C 863.941406 456.5 853.914062 460.800781 842.449219 460.800781 L 627.507812 460.800781 L 627.507812 245.761719 L 670.496094 202.753906 L 627.507812 202.753906 L 627.507812 159.742188 L 842.449219 159.742188 C 853.914062 159.742188 863.941406 164.042969 872.539062 172.644531 C 881.136719 181.246094 885.4375 191.28125 885.4375 202.753906 Z M 836.308594 417.792969 L 836.308594 202.753906 L 676.636719 202.753906 L 676.636719 454.65625 L 713.484375 417.792969 Z M 836.308594 417.792969 "/>
<path style=" stroke:none;fill-rule:nonzero;fill:rgb(0%,0%,0%);fill-opacity:1;" d="M 1166.25 460.800781 L 1103.613281 460.800781 L 975.875 331.777344 L 1110.980469 331.777344 L 1110.980469 202.753906 L 951.308594 202.753906 L 951.308594 460.800781 L 902.179688 460.800781 L 902.179688 245.144531 L 945.167969 202.753906 L 902.179688 202.753906 L 902.179688 159.742188 L 1117.121094 159.742188 C 1128.585938 159.742188 1138.617188 164.042969 1147.214844 172.644531 C 1155.8125 181.246094 1160.109375 191.28125 1160.109375 202.753906 L 1160.109375 319.488281 C 1160.109375 352.257812 1145.78125 368.640625 1117.121094 368.640625 L 1080.273438 368.640625 L 1080.273438 375.398438 Z M 1166.25 460.800781 "/>
<path style=" stroke:none;fill-rule:nonzero;fill:rgb(0%,0%,0%);fill-opacity:1;" d="M 478.148438 409.601562 L 366.199219 409.601562 L 366.199219 252.800781 L 391.789062 252.800781 L 391.789062 387.199219 L 452.5625 387.199219 L 452.5625 364.800781 L 478.148438 364.800781 Z M 478.148438 409.601562 "/>
<path style=" stroke:none;fill-rule:nonzero;fill:rgb(0%,0%,0%);fill-opacity:1;" d="M 613.164062 460.800781 L 564.035156 460.800781 L 564.035156 159.742188 L 613.164062 159.742188 Z M 613.164062 460.800781 "/>
<path style=" stroke:none;fill-rule:nonzero;fill:rgb(0%,0%,0%);fill-opacity:1;" d="M 557.6875 460.800781 L 508.558594 460.800781 L 508.558594 423.9375 L 471.710938 460.800781 L 342.746094 460.800781 C 330.875 460.800781 320.636719 456.703125 312.039062 448.511719 C 303.851562 439.910156 299.757812 429.671875 299.757812 417.792969 L 299.757812 159.742188 L 348.886719 159.742188 L 348.886719 417.792969 L 508.558594 417.792969 L 508.558594 159.742188 L 557.6875 159.742188 Z M 557.6875 460.800781 "/>
<path style=" stroke:none;fill-rule:nonzero;fill:rgb(0%,0%,0%);fill-opacity:1;" d="M 311.386719 418.6875 C 311.386719 430.320312 307.175781 440.34375 298.757812 448.769531 C 290.738281 456.789062 280.917969 460.800781 269.292969 460.800781 L 58.828125 460.800781 L 58.828125 250.238281 L 100.921875 208.128906 L 58.828125 208.128906 L 58.828125 166.015625 L 227.199219 166.015625 C 238.824219 166.015625 248.648438 170.226562 256.664062 178.648438 C 265.082031 186.671875 269.292969 196.496094 269.292969 208.128906 L 269.292969 292.351562 L 270.496094 292.351562 C 282.121094 292.351562 291.742188 296.5625 299.359375 304.984375 C 307.375 313.007812 311.386719 322.832031 311.386719 334.464844 Z M 221.1875 292.351562 L 221.1875 208.128906 L 106.933594 208.128906 L 106.933594 328.449219 L 143.015625 292.351562 Z M 263.28125 418.6875 L 263.28125 334.464844 L 106.933594 334.464844 L 106.933594 418.6875 Z M 263.28125 418.6875 "/>
</g>
</svg>
