<?xml version="1.0" encoding="UTF-8"?>
<svg xmlns="http://www.w3.org/2000/svg" xmlns:xlink="http://www.w3.org/1999/xlink" width="192px" height="192px" viewBox="0 0 192 75" version="1.1">
<g id="surface1">
<path style=" stroke:none;fill-rule:nonzero;fill:rgb(0%,0%,0%);fill-opacity:1;" d="M 120 60 L 103.53125 60 L 103.53125 43.59375 L 106.824219 40.3125 L 103.53125 40.3125 L 103.53125 37.03125 L 120 37.03125 L 120 40.3125 L 107.292969 40.3125 L 107.292969 49.6875 L 110.117188 46.875 L 120 46.875 L 120 50.15625 L 107.292969 50.15625 L 107.292969 56.71875 L 120 56.71875 Z M 120 60 "/>
<path style=" stroke:none;fill-rule:nonzero;fill:rgb(0%,0%,0%);fill-opacity:1;" d="M 130.269531 61.199219 C 130.269531 62.878906 129.640625 64.351562 128.375 65.609375 C 127.109375 66.871094 125.632812 67.5 123.945312 67.5 L 92.324219 67.5 L 92.324219 36 L 98.648438 29.699219 L 92.324219 29.699219 L 92.324219 23.398438 L 123.945312 23.398438 C 125.632812 23.398438 127.109375 24.03125 128.375 25.289062 C 129.640625 26.550781 130.269531 28.019531 130.269531 29.699219 Z M 123.042969 61.199219 L 123.042969 29.699219 L 99.550781 29.699219 L 99.550781 66.601562 L 104.972656 61.199219 Z M 123.042969 61.199219 "/>
<path style=" stroke:none;fill-rule:nonzero;fill:rgb(0%,0%,0%);fill-opacity:1;" d="M 171.585938 67.5 L 162.371094 67.5 L 143.578125 48.601562 L 163.453125 48.601562 L 163.453125 29.699219 L 139.964844 29.699219 L 139.964844 67.5 L 132.734375 67.5 L 132.734375 35.910156 L 139.058594 29.699219 L 132.734375 29.699219 L 132.734375 23.398438 L 164.359375 23.398438 C 166.042969 23.398438 167.519531 24.03125 168.785156 25.289062 C 170.050781 26.550781 170.683594 28.019531 170.683594 29.699219 L 170.683594 46.800781 C 170.683594 51.601562 168.574219 54 164.359375 54 L 158.9375 54 L 158.9375 54.988281 Z M 171.585938 67.5 "/>
<path style=" stroke:none;fill-rule:nonzero;fill:rgb(0%,0%,0%);fill-opacity:1;" d="M 70.347656 60 L 53.878906 60 L 53.878906 37.03125 L 57.640625 37.03125 L 57.640625 56.71875 L 66.582031 56.71875 L 66.582031 53.4375 L 70.347656 53.4375 Z M 70.347656 60 "/>
<path style=" stroke:none;fill-rule:nonzero;fill:rgb(0%,0%,0%);fill-opacity:1;" d="M 90.214844 67.5 L 82.984375 67.5 L 82.984375 23.398438 L 90.214844 23.398438 Z M 90.214844 67.5 "/>
<path style=" stroke:none;fill-rule:nonzero;fill:rgb(0%,0%,0%);fill-opacity:1;" d="M 82.050781 67.5 L 74.824219 67.5 L 74.824219 62.101562 L 69.402344 67.5 L 50.425781 67.5 C 48.679688 67.5 47.175781 66.898438 45.910156 65.699219 C 44.703125 64.441406 44.101562 62.941406 44.101562 61.199219 L 44.101562 23.398438 L 51.332031 23.398438 L 51.332031 61.199219 L 74.824219 61.199219 L 74.824219 23.398438 L 82.050781 23.398438 Z M 82.050781 67.5 "/>
<path style=" stroke:none;fill-rule:nonzero;fill:rgb(0%,0%,0%);fill-opacity:1;" d="M 45.8125 61.332031 C 45.8125 63.035156 45.195312 64.503906 43.957031 65.738281 C 42.777344 66.914062 41.332031 67.5 39.621094 67.5 L 8.65625 67.5 L 8.65625 36.65625 L 14.847656 30.488281 L 8.65625 30.488281 L 8.65625 24.320312 L 33.425781 24.320312 C 35.136719 24.320312 36.582031 24.9375 37.761719 26.167969 C 39 27.34375 39.621094 28.785156 39.621094 30.488281 L 39.621094 42.824219 L 39.796875 42.824219 C 41.507812 42.824219 42.921875 43.441406 44.042969 44.675781 C 45.222656 45.851562 45.8125 47.289062 45.8125 48.992188 Z M 32.542969 42.824219 L 32.542969 30.488281 L 15.734375 30.488281 L 15.734375 48.113281 L 21.042969 42.824219 Z M 38.734375 61.332031 L 38.734375 48.992188 L 15.734375 48.992188 L 15.734375 61.332031 Z M 38.734375 61.332031 "/>
</g>
</svg>
