<svg width="102" height="40" viewBox="0 0 102 40" fill="none" xmlns="http://www.w3.org/2000/svg">
<path d="M63.75 32H55V23.25L56.75 21.5H55V19.75H63.75V21.5H57V26.5L58.5 25H63.75V26.75H57V30.25H63.75V32Z" fill="black"/>
<path d="M69.2066 32.64C69.2066 33.536 68.8706 34.32 68.1986 34.992C67.5266 35.664 66.7426 36 65.8466 36H49.0466V19.2L52.4066 15.84H49.0466V12.48H65.8466C66.7426 12.48 67.5266 12.816 68.1986 13.488C68.8706 14.16 69.2066 14.944 69.2066 15.84V32.64ZM65.3666 32.64V15.84H52.8866V35.52L55.7666 32.64H65.3666Z" fill="black"/>
<path d="M91.1553 36H86.2593L76.2753 25.92H86.8353V15.84H74.3553V36H70.5153V19.152L73.8753 15.84H70.5153V12.48H87.3153C88.2113 12.48 88.9953 12.816 89.6673 13.488C90.3393 14.16 90.6753 14.944 90.6753 15.84V24.96C90.6753 27.52 89.5553 28.8 87.3153 28.8H84.4353V29.328L91.1553 36Z" fill="black"/>
<path d="M37.3726 32H28.6226V19.75H30.6226V30.25H35.3726V28.5H37.3726V32Z" fill="black"/>
<path d="M47.9256 36H44.0856L44.0856 12.48H47.9256L47.9256 36Z" fill="black"/>
<path d="M43.5894 36H39.7494V33.12L36.8694 36H26.7894C25.8614 36 25.0614 35.68 24.3894 35.04C23.7494 34.368 23.4294 33.568 23.4294 32.64V12.48H27.2694V32.64H39.7494V12.48H43.5894V36Z" fill="black"/>
<path d="M24.3382 32.71C24.3382 33.6187 24.0092 34.402 23.3512 35.06C22.7245 35.6867 21.9568 36 21.0482 36H4.59816V19.55L7.88816 16.26H4.59816V12.97H17.7582C18.6668 12.97 19.4345 13.299 20.0612 13.957C20.7192 14.5837 21.0482 15.3513 21.0482 16.26V22.84H21.1422C22.0508 22.84 22.8028 23.169 23.3982 23.827C24.0248 24.4537 24.3382 25.2213 24.3382 26.13V32.71ZM17.2882 22.84V16.26H8.35816V25.66L11.1782 22.84H17.2882ZM20.5782 32.71V26.13H8.35816V32.71H20.5782Z" fill="black"/>
</svg>
